{
	"asset":{
		"generator":"Khronos glTF Blender I/O v4.2.57",
		"version":"2.0"
	},
	"scene":0,
	"scenes":[
		{
			"name":"Scene",
			"nodes":[
				0
			]
		}
	],
	"nodes":[
		{
			"mesh":0,
			"name":"22",
			"scale":[
				1,
				1,
				0.8180327415466309
			],
			"translation":[
				1403.24755859375,
				-70.0171890258789,
				43.22319412231445
			]
		}
	],
	"meshes":[
		{
			"name":"Cube.036",
			"primitives":[
				{
					"attributes":{
						"POSITION":0,
						"NORMAL":1,
						"TEXCOORD_0":2,
						"TEXCOORD_1":3
					},
					"indices":4
				}
			]
		}
	],
	"accessors":[
		{
			"bufferView":0,
			"componentType":5126,
			"count":660,
			"max":[
				1.823483943939209,
				1.9403958320617676,
				0.1309356689453125
			],
			"min":[
				-1.837788462638855,
				-5.211276531219482,
				-0.11006546765565872
			],
			"type":"VEC3"
		},
		{
			"bufferView":1,
			"componentType":5126,
			"count":660,
			"type":"VEC3"
		},
		{
			"bufferView":2,
			"componentType":5126,
			"count":660,
			"type":"VEC2"
		},
		{
			"bufferView":3,
			"componentType":5126,
			"count":660,
			"type":"VEC2"
		},
		{
			"bufferView":4,
			"componentType":5123,
			"count":3390,
			"type":"SCALAR"
		}
	],
	"bufferViews":[
		{
			"buffer":0,
			"byteLength":7920,
			"byteOffset":0,
			"target":34962
		},
		{
			"buffer":0,
			"byteLength":7920,
			"byteOffset":7920,
			"target":34962
		},
		{
			"buffer":0,
			"byteLength":5280,
			"byteOffset":15840,
			"target":34962
		},
		{
			"buffer":0,
			"byteLength":5280,
			"byteOffset":21120,
			"target":34962
		},
		{
			"buffer":0,
			"byteLength":6780,
			"byteOffset":26400,
			"target":34963
		}
	],
	"buffers":[
		{
			"byteLength":33180,
			"uri":"Test2.bin"
		}
	]
}
